<svg xmlns="http://www.w3.org/2000/svg" viewBox="0 0 64 64" fill="none">
  <rect width="64" height="64" rx="8" fill="#222020"/>
  <!-- Camera body -->
  <rect x="12" y="22" width="40" height="28" rx="3" stroke="white" stroke-width="2.5" fill="none"/>
  <!-- Camera top/viewfinder -->
  <path d="M22 22V18C22 16.9 22.9 16 24 16H40C41.1 16 42 16.9 42 18V22" stroke="white" stroke-width="2.5" fill="none"/>
  <!-- Flash -->
  <rect x="16" y="16" width="8" height="6" rx="1" stroke="white" stroke-width="2" fill="none"/>
  <!-- Lens outer -->
  <circle cx="32" cy="36" r="9" stroke="white" stroke-width="2.5" fill="none"/>
  <!-- Lens inner -->
  <circle cx="32" cy="36" r="5" stroke="white" stroke-width="1.5" fill="none"/>
  <!-- Lens center dot -->
  <circle cx="32" cy="36" r="1.5" fill="white"/>
  <!-- Film strip at bottom -->
  <rect x="20" y="44" width="24" height="4" rx="1" stroke="white" stroke-width="1.5" fill="none"/>
  <line x1="24" y1="44" x2="24" y2="48" stroke="white" stroke-width="1"/>
  <line x1="28" y1="44" x2="28" y2="48" stroke="white" stroke-width="1"/>
  <line x1="32" y1="44" x2="32" y2="48" stroke="white" stroke-width="1"/>
  <line x1="36" y1="44" x2="36" y2="48" stroke="white" stroke-width="1"/>
  <line x1="40" y1="44" x2="40" y2="48" stroke="white" stroke-width="1"/>
</svg>
